<?xml version="1.0" standalone="no"?>
<!DOCTYPE svg PUBLIC "-//W3C//DTD SVG 20010904//EN"
 "http://www.w3.org/TR/2001/REC-SVG-20010904/DTD/svg10.dtd">
<svg version="1.0" xmlns="http://www.w3.org/2000/svg"
 width="400.000000pt" height="400.000000pt" viewBox="0 0 400.000000 400.000000"
 preserveAspectRatio="xMidYMid meet">
<metadata>
Created by potrace 1.14, written by Peter Selinger 2001-2017
</metadata>
<g transform="translate(0.000000,400.000000) scale(0.100000,-0.100000)"
fill="#000000" stroke="none">
<path d="M0 2000 l0 -2000 2000 0 2000 0 0 2000 0 2000 -2000 0 -2000 0 0
-2000z m2245 1576 c86 -18 310 -87 360 -111 28 -14 22 -15 -75 -8 -231 16
-464 -7 -626 -62 -200 -67 -434 -210 -569 -350 -115 -118 -162 -181 -237 -315
-137 -245 -198 -504 -185 -780 14 -294 177 -590 427 -777 252 -188 594 -250
893 -162 191 56 406 185 500 300 17 22 47 57 64 77 18 20 43 57 56 82 13 25
35 66 50 91 62 105 107 306 107 474 -1 165 -63 336 -176 485 -54 71 -82 95
-179 157 -154 99 -319 143 -489 130 -348 -27 -622 -260 -706 -601 -64 -260 -1
-456 199 -614 80 -64 161 -86 311 -86 106 0 133 3 178 22 154 64 269 193 312
351 49 176 2 318 -124 377 -145 67 -317 -10 -361 -160 -9 -31 -14 -60 -10 -66
4 -6 55 -10 125 -10 94 0 119 -3 123 -15 9 -23 -31 -126 -61 -158 -40 -44
-138 -87 -194 -87 -95 0 -197 69 -236 159 -10 24 -16 69 -16 131 -1 81 3 104
25 158 71 168 195 276 363 317 160 40 315 11 436 -81 72 -55 101 -87 144 -158
62 -103 81 -200 66 -340 -32 -313 -240 -574 -532 -672 -137 -45 -335 -49 -468
-9 -82 25 -211 91 -265 136 -26 22 -53 43 -60 47 -25 15 -114 140 -148 207
-78 154 -91 209 -91 385 1 158 13 229 66 380 138 396 498 697 916 766 98 16
301 19 377 6 195 -35 365 -108 515 -220 198 -149 312 -297 404 -520 40 -97 85
-306 86 -393 0 -89 -30 -324 -50 -399 -12 -41 -30 -109 -41 -150 -19 -77 -95
-233 -159 -332 -45 -66 -220 -287 -247 -308 -74 -61 -198 -153 -245 -183 -202
-128 -433 -205 -697 -231 -139 -14 -160 -14 -318 4 -147 17 -189 26 -315 68
-95 31 -185 70 -262 113 -126 69 -357 244 -403 306 -15 21 -59 76 -96 123 -38
47 -78 103 -89 125 -11 22 -36 65 -55 97 -38 62 -114 269 -143 392 -11 44 -25
143 -31 220 -16 184 4 362 62 567 39 139 53 173 124 304 151 277 343 467 632
627 249 138 520 201 823 193 74 -2 171 -11 215 -19z"/>
</g>
</svg>
